<svg xmlns="http://www.w3.org/2000/svg" xmlns:xlink="http://www.w3.org/1999/xlink" width="500" zoomAndPan="magnify" viewBox="0 0 375 374.999991" height="500" preserveAspectRatio="xMidYMid meet" version="1.0"><path fill="#0078ff" d="M 108.359375 322.535156 C 119.382812 317.675781 131.71875 316.761719 143.265625 319.9375 C 157.65625 323.863281 172.511719 325.84375 187.519531 325.804688 C 273.203125 325.804688 337.019531 264.378906 337.019531 181.914062 C 337.019531 99.445312 273.203125 38.019531 187.519531 38.019531 C 101.835938 38.019531 38.019531 99.445312 38.019531 181.914062 C 38.019531 224.332031 54.761719 261.746094 84.101562 287.984375 C 86.769531 290.34375 89.167969 292.949219 91.300781 295.800781 C 93.433594 298.652344 95.257812 301.6875 96.769531 304.910156 C 98.285156 308.132812 99.457031 311.476562 100.289062 314.9375 C 101.117188 318.402344 101.589844 321.910156 101.707031 325.46875 Z M 187.519531 0.644531 C 292.804688 0.644531 374.394531 77.765625 374.394531 181.914062 C 374.394531 286.058594 292.804688 363.179688 187.519531 363.179688 C 169.160156 363.230469 151.128906 360.835938 133.417969 356.003906 C 131.761719 355.550781 130.078125 355.386719 128.367188 355.511719 C 126.652344 355.636719 125.011719 356.042969 123.441406 356.734375 L 86.363281 373.105469 C 85.804688 373.351562 85.234375 373.5625 84.652344 373.738281 C 84.066406 373.917969 83.476562 374.054688 82.875 374.160156 C 82.273438 374.265625 81.667969 374.332031 81.058594 374.363281 C 80.449219 374.390625 79.839844 374.386719 79.230469 374.339844 C 78.625 374.296875 78.019531 374.214844 77.421875 374.097656 C 76.824219 373.976562 76.234375 373.824219 75.65625 373.632812 C 75.074219 373.445312 74.507812 373.21875 73.957031 372.957031 C 73.40625 372.699219 72.871094 372.40625 72.355469 372.082031 C 71.839844 371.757812 71.34375 371.402344 70.871094 371.015625 C 70.398438 370.628906 69.953125 370.21875 69.53125 369.777344 C 69.109375 369.335938 68.714844 368.871094 68.347656 368.382812 C 67.984375 367.894531 67.648438 367.386719 67.347656 366.859375 C 67.042969 366.328125 66.773438 365.78125 66.535156 365.21875 C 66.300781 364.65625 66.101562 364.082031 65.933594 363.496094 C 65.769531 362.910156 65.636719 362.3125 65.546875 361.710938 C 65.453125 361.109375 65.394531 360.503906 65.378906 359.890625 L 64.351562 326.628906 C 64.28125 324.585938 63.8125 322.636719 62.941406 320.785156 C 62.074219 318.9375 60.871094 317.332031 59.339844 315.976562 C 22.976562 283.480469 0.644531 236.425781 0.644531 181.914062 C 0.644531 77.765625 82.253906 0.644531 187.519531 0.644531 Z M 75.300781 234.929688 L 130.1875 147.84375 C 130.699219 147.027344 131.257812 146.238281 131.851562 145.480469 C 132.449219 144.71875 133.082031 143.992188 133.753906 143.296875 C 134.425781 142.601562 135.132812 141.945312 135.871094 141.324219 C 136.613281 140.703125 137.382812 140.121094 138.179688 139.578125 C 138.980469 139.035156 139.804688 138.539062 140.65625 138.082031 C 141.507812 137.625 142.382812 137.210938 143.277344 136.847656 C 144.171875 136.480469 145.082031 136.160156 146.007812 135.890625 C 146.933594 135.617188 147.871094 135.394531 148.824219 135.21875 C 149.773438 135.042969 150.730469 134.917969 151.691406 134.839844 C 152.65625 134.765625 153.621094 134.738281 154.585938 134.761719 C 155.550781 134.785156 156.515625 134.859375 157.472656 134.980469 C 158.429688 135.105469 159.378906 135.277344 160.320312 135.496094 C 161.261719 135.71875 162.1875 135.988281 163.101562 136.304688 C 164.011719 136.621094 164.90625 136.984375 165.78125 137.394531 C 166.65625 137.804688 167.507812 138.257812 168.335938 138.753906 C 169.164062 139.25 169.964844 139.789062 170.738281 140.371094 L 214.390625 173.074219 C 214.875 173.4375 215.382812 173.761719 215.921875 174.042969 C 216.457031 174.328125 217.011719 174.5625 217.585938 174.757812 C 218.160156 174.949219 218.746094 175.09375 219.34375 175.191406 C 219.941406 175.289062 220.542969 175.335938 221.148438 175.335938 C 221.753906 175.335938 222.355469 175.289062 222.953125 175.191406 C 223.550781 175.09375 224.136719 174.949219 224.710938 174.757812 C 225.285156 174.5625 225.839844 174.328125 226.375 174.042969 C 226.910156 173.761719 227.417969 173.4375 227.902344 173.074219 L 286.863281 128.296875 C 294.730469 122.335938 305.007812 131.753906 299.738281 140.128906 L 244.851562 227.210938 C 244.335938 228.027344 243.78125 228.816406 243.183594 229.578125 C 242.589844 230.335938 241.953125 231.066406 241.285156 231.757812 C 240.613281 232.453125 239.90625 233.113281 239.167969 233.734375 C 238.425781 234.355469 237.65625 234.9375 236.855469 235.476562 C 236.058594 236.019531 235.230469 236.519531 234.378906 236.976562 C 233.527344 237.433594 232.65625 237.84375 231.761719 238.210938 C 230.867188 238.578125 229.957031 238.894531 229.03125 239.167969 C 228.105469 239.441406 227.164062 239.664062 226.214844 239.839844 C 225.265625 240.015625 224.308594 240.140625 223.34375 240.214844 C 222.382812 240.292969 221.417969 240.320312 220.453125 240.296875 C 219.484375 240.273438 218.523438 240.199219 217.566406 240.074219 C 216.609375 239.953125 215.660156 239.78125 214.71875 239.558594 C 213.777344 239.339844 212.851562 239.070312 211.9375 238.753906 C 211.027344 238.433594 210.132812 238.070312 209.257812 237.664062 C 208.382812 237.253906 207.53125 236.800781 206.703125 236.300781 C 205.875 235.804688 205.074219 235.265625 204.300781 234.6875 L 160.644531 201.984375 C 160.164062 201.617188 159.652344 201.292969 159.117188 201.011719 C 158.582031 200.730469 158.027344 200.492188 157.453125 200.300781 C 156.878906 200.109375 156.292969 199.964844 155.695312 199.867188 C 155.097656 199.769531 154.496094 199.71875 153.890625 199.71875 C 153.285156 199.71875 152.683594 199.769531 152.085938 199.867188 C 151.488281 199.964844 150.902344 200.109375 150.328125 200.300781 C 149.753906 200.492188 149.199219 200.730469 148.664062 201.011719 C 148.128906 201.292969 147.617188 201.617188 147.136719 201.984375 L 88.175781 246.738281 C 80.308594 252.699219 70.03125 243.28125 75.300781 234.910156 Z M 75.300781 234.929688 " fill-opacity="1" fill-rule="nonzero"/></svg>